HIERARCHY
ROOT Hips
{
	OFFSET 0.00000 0.00000 0.00000
	CHANNELS 6 Xposition Yposition Zposition Yrotation Zrotation Xrotation 
	JOINT Lumbar
	{
		OFFSET 0 0 0
		CHANNELS 3 Zrotation Xrotation Yrotation
		JOINT Neck
		{
			OFFSET 0.00 0.2701 0.00
			CHANNELS 3 Zrotation Xrotation Yrotation
			End Site
			{
				OFFSET 0.00 0.1379 0.00
			}
		}
		JOINT RightShoulder
		{
			OFFSET 0.0119 0.2289 0.1181
			CHANNELS 3 Zrotation Xrotation Yrotation
			JOINT RightElbow
			{
				OFFSET 0.00 -0.1475 0.00
				CHANNELS 2 Zrotation Yrotation
				JOINT RightWrist
				{
					OFFSET 0.00 -0.1605 0.00
					CHANNELS 2 Zrotation Xrotation
					End Site
					{
						OFFSET 0.0040 -0.1068 0.0006
					}
				}
			}
		}
		JOINT LeftShoulder
		{
			OFFSET 0.0119 0.2289 -0.1181
			CHANNELS 3 Zrotation Xrotation Yrotation
			JOINT LeftElbow
			{
				OFFSET 0.00 -0.1475 0.00
				CHANNELS 2 Zrotation Yrotation
				JOINT LeftWrist
				{
					OFFSET 0.00 -0.1605 0.00
					CHANNELS 2 Zrotation Xrotation
					End Site
					{
						OFFSET 0.0040 -0.1068 -0.0006
					}
				}
			}
		}
	}
	JOINT RightHip
	{
		OFFSET 0.0316 -0.0424 0.0458
		CHANNELS 3 Zrotation Xrotation Yrotation
		JOINT RightKnee
		{
			OFFSET 0.00 -0.2438 0.00
			CHANNELS 1 Zrotation
			JOINT RightAnkle
			{
				OFFSET 0.00 -0.2449 0.00
				CHANNELS 3 Zrotation Xrotation Yrotation
				End Site
				{
					OFFSET 0.1237 -0.0542 0.0051
				}
			}
		}
	}
	JOINT LeftHip
	{
		OFFSET 0.0316 -0.0424 -0.0458
		CHANNELS 3 Zrotation Xrotation Yrotation
		JOINT LeftKnee
		{
			OFFSET 0.00 -0.2438 0.00
			CHANNELS 1 Zrotation
			JOINT LeftAnkle
			{
				OFFSET 0.00 -0.2449 0.00
				CHANNELS 3 Zrotation Xrotation Yrotation
				End Site
				{
					OFFSET 0.1237 -0.0542 -0.0051
				}
			}
		}
	}
}
MOTION
Frames: 30
Frame Time: 0.02
-0.00054 -0.00016 -0.00012 -170.62269 -27.59513 1.4779 44.27189 -1.37273 -7.27921 -14.2427 3.40935 -0.40429 -22.53415 -5.66546 -6.2562 26.37519 98.6712 9.52337 1.19598 -22.30757 6.6996 2.75892 30.12897 -106.41456 16.47489 -1.46241 28.61522 -2.42325 -1.65122 -20.27493 -7.19607 -5.16868 -3.4059 33.10956 4.38011 -1.93296 -24.34374 -7.00701 4.09091 2.82466
-0.00017 -0.00016 -0.00024 -170.50377 -27.59938 1.4959 44.24787 -1.34114 -7.30032 -14.2073 3.35874 -0.40473 -22.54621 -5.75371 -6.05583 26.55781 98.62521 9.50287 1.19426 -22.38984 6.74735 2.53133 30.50599 -106.51814 16.47722 -1.45228 28.6449 -2.45068 -1.83743 -20.28508 -7.19393 -5.16501 -3.40464 33.17757 4.44817 -1.5866 -24.35807 -7.00244 4.06151 2.80203
0.00019 -0.00015 -0.00035 -170.38439 -27.60358 1.51398 44.22389 -1.30964 -7.32131 -14.1722 3.3079 -0.40516 -22.55891 -5.84184 -5.85574 26.74065 98.57937 9.48248 1.19253 -22.47171 6.79502 2.30422 30.88197 -106.62161 16.47953 -1.44221 28.67447 -2.47819 -2.02349 -20.29527 -7.19185 -5.16139 -3.4034 33.24557 4.51585 -1.24147 -24.37245 -6.99785 4.03215 2.77944
0.00055 -0.00015 -0.00047 -170.26576 -27.60783 1.53195 44.19994 -1.27814 -7.34235 -14.13692 3.25739 -0.4056 -22.57104 -5.92983 -5.65592 26.92289 98.53349 9.46204 1.19081 -22.55373 6.84264 2.07728 31.25787 -106.72463 16.48175 -1.43207 28.70409 -2.50556 -2.20917 -20.3054 -7.18973 -5.15773 -3.40214 33.31342 4.58369 -0.89615 -24.38676 -6.99328 4.00282 2.75686
0.00092 -0.00015 -0.00059 -170.14772 -27.6121 1.54979 44.17594 -1.24657 -7.36351 -14.10134 3.20723 -0.40603 -22.58228 -6.01791 -5.45598 27.10448 98.48755 9.44152 1.18909 -22.63616 6.89029 1.84999 31.63471 -106.82845 16.48429 -1.42195 28.73373 -2.53282 -2.39491 -20.31548 -7.18755 -5.15404 -3.40085 33.38116 4.65192 -0.5497 -24.40099 -6.98875 3.97352 2.73428
0.00128 -0.00014 -0.0007 -170.02543 -27.61609 1.56837 44.152 -1.2152 -7.38413 -14.06728 3.15497 -0.40647 -22.59805 -6.10616 -5.25562 27.28986 98.44198 9.42144 1.18735 -22.71683 6.93798 1.62328 32.00882 -106.93161 16.48626 -1.41209 28.7631 -2.56087 -2.58168 -20.32587 -7.18569 -5.15057 -3.39972 33.44967 4.7184 -0.20746 -24.41568 -6.98406 3.94403 2.71168
0.00164 -0.00014 -0.00082 -169.91228 -27.62078 1.58543 44.128 -1.18346 -7.40587 -14.03003 3.10703 -0.40689 -22.60466 -6.19389 -5.05626 27.46777 98.3955 9.40034 1.18564 -22.80107 6.98558 1.39556 32.38815 -107.03397 16.48863 -1.40141 28.79322 -2.58724 -2.76598 -20.33563 -7.18316 -5.14663 -3.39827 33.51668 4.78847 0.14329 -24.42941 -6.97967 3.91487 2.68908
0.00201 -0.00013 -0.00093 -169.7899 -27.62458 1.60393 44.10402 -1.15208 -7.42648 -13.99603 3.05506 -0.40734 -22.61976 -6.28223 -4.85608 27.65191 98.35022 9.3805 1.18391 -22.88179 7.0332 1.16896 32.76241 -107.14071 16.49202 -1.39202 28.82221 -2.61525 -2.95289 -20.34595 -7.18128 -5.14315 -3.39713 33.58485 4.85499 0.48545 -24.44406 -6.97503 3.88558 2.66657
0.00238 -0.00013 -0.00103 -169.65921 -27.62827 1.62409 44.08016 -1.12106 -7.44607 -13.96482 2.99822 -0.40778 -22.6452 -6.37087 -4.65435 27.8465 98.30497 9.36093 1.18215 -22.95912 7.08113 0.94284 33.13169 -107.23844 16.4911 -1.38209 28.8516 -2.64495 -3.14182 -20.35706 -7.18007 -5.14013 -3.39628 33.65538 4.91814 0.82014 -24.45974 -6.96996 3.8554 2.64383
0.00272 -0.00012 -0.0012 -169.58525 -27.63552 1.63438 44.05591 -1.08769 -7.47261 -13.91401 2.96958 -0.40815 -22.61107 -6.45644 -4.45987 27.9895 98.25522 9.33599 1.18055 -23.05871 7.12814 0.71126 33.53328 -107.34484 16.49828 -1.36893 28.88403 -2.66399 -3.31562 -20.36392 -7.17463 -5.13416 -3.39353 33.71519 5.0036 1.20691 -24.4692 -6.967 3.82816 2.62136
0.00312 -0.00012 -0.00121 -169.38598 -27.63338 1.66569 44.0323 -1.05945 -7.48381 -13.90676 2.88136 -0.40874 -22.70257 -6.54935 -4.25122 28.23581 98.21773 9.32482 1.17862 -23.10957 7.1765 0.49297 33.86432 -107.46052 16.49903 -1.36661 28.90662 -2.7061 -3.52352 -20.37958 -7.17834 -5.13459 -3.39491 33.79577 5.0401 1.478 -24.49195 -6.95983 3.79611 2.59901
0.00376 -8e-05 -0.00081 -168.88544 -27.62164 1.75337 44.01173 -1.04393 -7.45742 -14.00072 2.62945 -0.40938 -23.14051 -6.65569 -3.99445 28.81401 98.19064 9.33071 1.17567 -23.04028 7.23452 0.29453 34.02114 -107.35959 16.38932 -1.35887 28.93122 -2.80715 -3.80703 -20.42109 -7.20592 -5.15143 -3.40693 33.95044 4.95751 1.48123 -24.55034 -6.93869 3.73861 2.57096
0.00447 -5e-05 -0.00022 -168.25126 -27.59813 1.86223 43.99137 -1.03368 -7.41434 -14.1408 2.31826 -0.41034 -23.70248 -6.77073 -3.72558 29.48696 98.17957 9.35359 1.17242 -22.91979 7.29346 0.11084 34.10454 -107.30162 16.28668 -1.36679 28.94146 -2.93193 -4.12712 -20.47112 -7.24305 -5.17492 -3.42327 34.12377 4.82374 1.36257 -24.62227 -6.91362 3.678 2.54385
0.00512 -1e-05 0.00031 -167.65027 -27.56858 1.96243 43.97032 -1.02204 -7.3765 -14.27303 2.03374 -0.41153 -24.20888 -6.88609 -3.46772 30.08498 98.17712 9.38308 1.16938 -22.81357 7.34722 -0.06659 34.20761 -107.39641 16.24613 -1.39273 28.93816 -3.04904 -4.4435 -20.51611 -7.27647 -5.19607 -3.43807 34.27616 4.7024 1.26292 -24.68847 -6.8921 3.62757 2.52061
0.00587 4e-05 0.00071 -167.16487 -27.58432 2.05923 43.9526 -1.00664 -7.35036 -14.35416 1.74823 -0.41117 -24.71959 -6.98315 -3.18483 30.81782 98.11005 9.35484 1.16598 -22.74425 7.41831 -0.29183 34.36425 -106.81019 15.94507 -1.31976 29.01579 -3.15411 -4.70957 -20.56604 -7.30672 -5.21424 -3.45098 34.47718 4.62331 1.30241 -24.75271 -6.86372 3.54244 2.48042
0.00643 5e-05 0.00144 -166.40755 -27.5064 2.16736 43.92699 -0.99972 -7.29358 -14.54743 1.45323 -0.41405 -25.24141 -7.12076 -2.95342 31.29222 98.17825 9.44743 1.16332 -22.58717 7.45698 -0.42265 34.39705 -107.59462 16.16926 -1.4475 28.92616 -3.28855 -5.08394 -20.60773 -7.34649 -5.24034 -3.46901 34.58638 4.44828 1.04102 -24.8245 -6.84796 3.52593 2.47427
0.00636 -4e-05 0.00302 -164.92931 -27.1438 2.30785 43.88763 -1.02002 -7.17522 -15.08266 1.12595 -0.42646 -25.83934 -7.36417 -2.84919 31.02988 98.64235 9.89849 1.16228 -22.18966 7.3757 -0.21991 34.06073 -112.66074 18.00864 -2.20468 28.33858 -3.50999 -5.79395 -20.62434 -7.40442 -5.28542 -3.49872 34.3946 3.98408 -0.17914 -24.91123 -6.87455 3.7255 2.57502
0.0061 -0.00017 0.00493 -163.18353 -26.69318 2.45773 43.83857 -1.0477 -7.02252 -15.72022 0.79534 -0.44201 -26.42749 -7.64833 -2.80116 30.50412 99.2368 10.46477 1.16215 -21.70749 7.267 0.06467 33.61 -119.01704 20.34749 -3.14967 27.59112 -3.75818 -6.6042 -20.63243 -7.47251 -5.33842 -3.53365 34.11804 3.43117 -1.67223 -25.00543 -6.91298 3.98986 2.70779
0.00597 -0.00027 0.00669 -161.56094 -26.30134 2.59928 43.78896 -1.0687 -6.87381 -16.28334 0.47935 -0.45568 -26.97357 -7.91713 -2.7384 30.09885 99.75467 10.95979 1.16186 -21.27122 7.19113 0.25959 33.24223 -124.441 22.34561 -3.95544 26.94214 -3.98623 -7.33734 -20.64455 -7.53994 -5.38872 -3.5672 33.90804 2.94405 -2.93201 -25.0981 -6.94143 4.20704 2.817
0.00564 -0.00039 0.00845 -159.92312 -25.82812 2.75909 43.76131 -1.10403 -6.77581 -16.96924 0.10466 -0.47124 -27.73064 -8.17499 -2.6271 29.6936 100.34753 11.53675 1.16024 -20.8023 7.03087 0.66991 32.74427 -131.29842 24.81505 -4.98464 26.18136 -4.24802 -8.20071 -20.65619 -7.59168 -5.43573 -3.59698 33.57919 2.35091 -4.64168 -25.18399 -6.98824 4.49713 2.96327
0.00568 -0.00049 0.01028 -158.25996 -25.50576 2.88235 43.68433 -1.11108 -6.56143 -17.41908 -0.14615 -0.48362 -28.03144 -8.4626 -2.63354 29.22456 100.81345 11.96822 1.16191 -20.38132 7.03789 0.65913 32.48733 -135.51217 26.43278 -5.59856 25.61849 -4.44658 -8.82151 -20.66683 -7.67753 -5.49103 -3.63545 33.47897 1.95403 -5.49723 -25.28482 -7.00083 4.65313 3.04118
0.00677 -0.00054 0.0123 -156.55304 -25.60402 2.90622 43.48455 -1.03945 -6.05842 -17.22612 -0.06786 -0.48625 -27.18145 -8.8434 -2.92511 28.64385 100.91752 11.98742 1.17151 -20.11908 7.53033 -0.60632 32.9581 -131.79525 25.47622 -4.9702 25.61757 -4.45511 -8.7004 -20.67567 -7.86239 -5.57032 -3.69954 34.01859 2.1572 -3.75565 -25.43169 -6.90592 4.40256 2.91184
0.00823 -0.00058 0.01438 -154.83839 -25.86064 2.89212 43.23341 -0.93899 -5.43521 -16.78556 0.138 -0.48559 -25.85068 -9.24796 -3.33854 28.00818 100.89087 11.85361 1.18565 -19.90726 8.18876 -2.28527 33.66929 -125.43012 23.66306 -3.92641 25.82609 -4.40049 -8.33946 -20.68399 -8.07985 -5.65709 -3.77165 34.79346 2.55475 -1.17529 -25.59205 -6.77798 4.01852 2.7145
0.00953 -0.00061 0.01641 -153.153 -26.05611 2.89285 42.99851 -0.85079 -4.85089 -16.43568 0.29491 -0.48654 -24.67114 -9.62887 -3.71299 27.39642 100.9036 11.77717 1.19697 -19.66879 8.76034 -3.72759 34.24843 -120.48588 22.30888 -3.10554 25.95395 -4.38066 -8.1205 -20.69319 -8.27753 -5.73841 -3.83813 35.4685 2.83925 0.90736 -25.74183 -6.67193 3.70914 2.55533
0.01079 -0.00067 0.01853 -151.34728 -26.20219 2.90435 42.79317 -0.76593 -4.33095 -16.18127 0.41393 -0.48713 -23.78097 -10.06879 -4.01871 26.77753 100.98313 11.75294 1.20714 -19.4428 9.37975 -5.37179 34.92 -114.67596 20.68154 -2.14799 26.01378 -4.33661 -7.76964 -20.69924 -8.4964 -5.82863 -3.9131 36.11057 3.22352 3.46716 -25.91063 -6.53763 3.34337 2.36687
0.01223 -0.00068 0.02047 -149.79662 -26.49067 2.88405 42.5143 -0.66775 -3.64987 -15.66831 0.64175 -0.48764 -22.16692 -10.38674 -4.4976 26.16699 100.91879 11.58615 1.22627 -19.20429 9.93859 -6.69591 35.45732 -110.01456 19.40866 -1.37296 26.26852 -4.32697 -7.63041 -20.712 -8.67891 -5.90201 -3.97229 36.87848 3.44909 5.24239 -26.04295 -6.4537 3.0619 2.22254
0.01409 -0.00058 0.02194 -148.92994 -27.12719 2.78702 42.04264 -0.53481 -2.54461 -14.49783 1.14305 -0.48876 -18.73398 -10.39899 -5.40211 25.57085 100.23083 11.02232 1.21824 -18.91497 10.29601 -7.0269 35.56849 -109.23762 19.35728 -1.21152 26.99924 -4.43352 -8.17561 -20.74213 -8.75133 -5.92684 -3.9852 37.93504 3.17449 4.59274 -26.07092 -6.52116 3.05049 2.21897
0.01612 -0.00044 0.02322 -148.32552 -27.90293 2.65891 41.49834 -0.39045 -1.28338 -13.07639 1.7487 -0.48991 -14.57937 -10.28169 -6.4755 24.9929 99.43787 10.32343 1.22601 -18.61171 10.58575 -7.02449 35.53627 -109.68593 19.68102 -1.24549 27.92158 -4.57571 -8.93415 -20.77939 -8.78629 -5.93445 -3.98204 39.11078 2.73689 3.137 -26.06182 -6.63971 3.12711 2.26142
0.01807 -0.00031 0.02457 -147.61719 -28.6199 2.54383 40.98997 -0.25443 -0.09906 -11.77146 2.3038 -0.491 -10.71195 -10.19785 -7.49277 24.41936 98.87737 9.71753 1.26309 -18.3188 10.9023 -7.17907 35.56794 -109.52833 19.81185 -1.18406 28.76442 -4.69768 -9.56693 -20.81417 -8.83945 -5.95005 -3.98669 40.23326 2.38346 2.08517 -26.06975 -6.73192 3.1604 2.2813
0.02005 -0.00019 0.02598 -146.84474 -29.32437 2.43207 40.47108 -0.10367 1.11602 -10.4457 2.87649 -0.49213 -6.99232 -10.21752 -8.44843 23.78019 97.58296 8.98897 1.1567 -18.01381 11.24102 -7.3205 35.61296 -109.50008 20.01788 -1.13684 29.58314 -4.83433 -10.31164 -20.84543 -8.88874 -5.96525 -3.9895 41.36018 1.99302 0.8992 -26.07701 -6.83574 3.2041 2.30635
